<svg xmlns="http://www.w3.org/2000/svg" version="1.1" xmlns:xlink="http://www.w3.org/1999/xlink" xmlns:svgjs="http://svgjs.dev/svgjs" width="1440" height="560" preserveAspectRatio="none" viewBox="0 0 1440 560"><g mask="url(&quot;#SvgjsMask1027&quot;)" fill="none"><rect width="1440" height="560" x="0" y="0" fill="url(&quot;#SvgjsLinearGradient1028&quot;)"></rect><path d="M1560 560L0 560 L0 306.89Q67.77 254.66, 120 322.43Q169.5 299.93, 192 349.42Q264.64 302.06, 312 374.7Q326.67 269.37, 432 284.03Q476.18 256.2, 504 300.38Q548.61 272.99, 576 317.6Q619.02 288.63, 648 331.65Q664.12 275.77, 720 291.89Q763.38 263.26, 792 306.64Q850.96 293.6, 864 352.55Q906.75 323.3, 936 366.04Q949.98 308.02, 1008 322.01Q1062.85 256.86, 1128 311.7Q1185.11 296.81, 1200 353.91Q1227.02 260.93, 1320 287.95Q1399.28 247.23, 1440 326.51Q1524.85 291.36, 1560 376.21z" fill="#182f5d"></path><path d="M1512 560L0 560 L0 435.63Q62.37 378, 120 440.37Q144.79 345.16, 240 369.96Q305.11 315.06, 360 380.17Q414.06 362.23, 432 416.28Q501.26 365.54, 552 434.81Q573.47 384.28, 624 405.75Q665.58 375.32, 696 416.9Q728.03 328.93, 816 360.96Q857.13 330.09, 888 371.22Q958.48 369.7, 960 440.18Q1007.89 368.08, 1080 415.97Q1122.91 338.88, 1200 381.8Q1252.32 314.12, 1320 366.44Q1411.34 337.78, 1440 429.12Q1465.57 382.69, 1512 408.25z" fill="#25467d"></path><path d="M1464 560L0 560 L0 426.79Q70.44 377.23, 120 447.66Q185.67 441.33, 192 507Q211.06 406.06, 312 425.13Q379.88 373, 432 440.88Q485.64 422.52, 504 476.17Q554.8 406.97, 624 457.77Q678.54 440.31, 696 494.85Q748.23 427.08, 816 479.31Q867.09 410.4, 936 461.49Q951.91 405.4, 1008 421.32Q1078.29 371.61, 1128 441.89Q1208.08 401.97, 1248 482.05Q1271.44 433.49, 1320 456.93Q1339.23 404.16, 1392 423.4Q1438.37 397.77, 1464 444.14z" fill="#356cb1"></path><path d="M1488 560L0 560 L0 526.2Q48.45 502.65, 72 551.11Q119.83 526.94, 144 574.77Q156.59 515.36, 216 527.94Q245.93 485.87, 288 515.8Q360.63 468.43, 408 541.06Q436.83 497.88, 480 526.71Q542.84 517.55, 552 580.39Q571.6 479.99, 672 499.59Q713.56 469.15, 744 510.72Q835.23 481.95, 864 573.18Q899.17 488.35, 984 523.51Q1035.9 455.41, 1104 507.32Q1170.3 501.62, 1176 567.92Q1241.51 513.42, 1296 578.93Q1324.48 487.41, 1416 515.89Q1464.33 492.22, 1488 540.55z" fill="rgba(42, 74, 139, 1)"></path></g><defs><mask id="SvgjsMask1027"><rect width="1440" height="560" fill="#ffffff"></rect></mask><linearGradient x1="15.28%" y1="-39.29%" x2="84.72%" y2="139.29%" gradientUnits="userSpaceOnUse" id="SvgjsLinearGradient1028"><stop stop-color="rgba(0, 69, 158, 1)" offset="0.05"></stop><stop stop-color="#00459e" offset="1"></stop></linearGradient></defs></svg>